<?xml version="1.0" encoding="UTF-8"?>
<svg version="1.1" xmlns="http://www.w3.org/2000/svg" width="512" height="512">
<path d="M0 0 C3.86148675 2.45181754 7.4469115 5.12314448 11 8 C11.63421875 8.48210938 12.2684375 8.96421875 12.921875 9.4609375 C43.01014148 33.33832329 57.65222822 78.20663101 70 113 C72.475 112.505 72.475 112.505 75 112 C74.67 111.34 74.34 110.68 74 110 C73.08653632 96.06967881 77.50826695 83.59383793 86.1875 72.75 C92.02877463 66.44245954 99.92960875 61.85826357 108 59 C108.99 59 109.98 59 111 59 C111.02578125 58.21238281 111.0515625 57.42476562 111.078125 56.61328125 C112.01148903 38.68844923 118.39121101 24.6741195 131 12 C131.88751953 11.06027344 131.88751953 11.06027344 132.79296875 10.1015625 C136.99553933 6.00104109 141.74964775 3.33750939 146.9375 0.6875 C147.59371338 0.34960449 148.24992676 0.01170898 148.92602539 -0.33642578 C162.23001093 -6.82817907 180.11057249 -7.45368101 194.25 -3.375 C212.22230063 3.39409486 225.80890354 15.04131836 233.97265625 32.55078125 C237.6437315 41.30273632 238.60434498 49.53156613 239 59 C239.88042969 59.11214844 240.76085937 59.22429687 241.66796875 59.33984375 C251.75859959 61.33904259 260.88521973 68.58834345 267.0078125 76.640625 C273.12326532 85.8010104 276.17390951 94.78295813 276.0625 105.8125 C276.05347656 106.97394531 276.04445313 108.13539062 276.03515625 109.33203125 C276.01775391 110.65267578 276.01775391 110.65267578 276 112 C276.88171875 112.26683594 277.7634375 112.53367187 278.671875 112.80859375 C294.38751184 118.43449661 306.30779348 131.96233321 314 146.3125 C315.73809309 150.01769169 316.78832553 152.86129098 316 157 C314.625 159.375 314.625 159.375 313 161 C312.34 161 311.68 161 311 161 C311.33 161.9075 311.66 162.815 312 163.75 C313.55521854 169.06183796 313.16196433 174.52020695 313 180 C313.78375 180.268125 314.5675 180.53625 315.375 180.8125 C318 182 318 182 320 185 C320.78458028 196.54741238 315.32161814 207.53192237 309.234375 216.9765625 C307.85044513 219.07516763 307.85044513 219.07516763 307 222 C308.19625 222.04125 309.3925 222.0825 310.625 222.125 C322.19832814 223.45338515 332.14301761 229.82133115 341 237 C342.05960937 237.81404297 342.05960937 237.81404297 343.140625 238.64453125 C358.81452755 251.32558233 367.58884763 271.5518409 371 291 C372.69257882 318.42678071 369.06611148 343.20035551 350.53369141 364.70117188 C337.46543309 379.25173817 322.53314467 387.55835692 303 390 C303 423.66 303 457.32 303 492 C324.25658366 491.88124206 324.25658366 491.88124206 345.51293945 491.72973633 C348.17138306 491.72097717 350.82983068 491.71333189 353.48828125 491.70703125 C354.17955612 491.69919113 354.87083099 491.69135101 355.58305359 491.68327332 C357.61947537 491.66133295 359.65608706 491.65998347 361.69262695 491.65942383 C362.84068314 491.65276199 363.98873932 491.64610016 365.17158508 491.63923645 C368 492 368 492 369.86930847 493.38652039 C371.36027976 495.51411374 371.4008133 496.9186698 371.375 499.5 C371.38273438 500.2734375 371.39046875 501.046875 371.3984375 501.84375 C370.87433015 504.68009566 370.37974947 505.34045079 368 507 C365.1725094 507.29423894 362.56541222 507.40226182 359.73684692 507.37752342 C358.45152718 507.38406391 358.45152718 507.38406391 357.14024138 507.39073652 C354.24323934 507.40176271 351.34670631 507.39123662 348.44970703 507.38095093 C346.36210446 507.38440458 344.27450372 507.38916717 342.18690681 507.39513266 C336.43023118 507.40771248 330.6737038 507.40144066 324.91702747 507.39217401 C318.71654544 507.38541232 312.51608968 507.39585038 306.31561279 507.40411377 C294.86422231 507.41671056 283.41289828 507.4155798 271.9615081 507.40737936 C261.38369642 507.39984143 250.80590218 507.39785851 240.22808838 507.4014473 C239.5272385 507.40167645 238.82638862 507.40190561 238.10430087 507.40214171 C235.25953319 507.40307568 232.41476552 507.40403087 229.56999785 507.405021 C202.86786072 507.41420407 176.16575387 507.40586799 149.46362141 507.38973031 C125.72508033 507.37549282 101.98658753 507.37676667 78.24804688 507.39111328 C51.59566697 507.40716694 24.94331386 507.41355289 -1.70907021 507.40427649 C-4.54874292 507.4033143 -7.38841565 507.40237578 -10.22808838 507.4014473 C-10.92732075 507.40121006 -11.62655313 507.40097283 -12.34697436 507.40072841 C-22.91977979 507.39731176 -33.4925659 507.40131469 -44.06536865 507.40888596 C-56.08358627 507.41744923 -68.10173439 507.41506042 -80.11994982 507.39904372 C-86.25693278 507.3911357 -92.39381753 507.38811233 -98.53079987 507.39799118 C-104.14138844 507.40688638 -109.75178715 507.40209123 -115.36235833 507.38605852 C-117.39931876 507.38268865 -119.43629501 507.38445377 -121.47324538 507.39168589 C-124.22801194 507.40072138 -126.98211584 507.39154116 -129.73684692 507.37752342 C-130.53990713 507.38454692 -131.34296734 507.39157042 -132.17036271 507.39880675 C-137.50671264 507.34400035 -137.50671264 507.34400035 -139.99154472 505.61117041 C-141.32531895 503.48025035 -141.40003148 502.00314753 -141.375 499.5 C-141.38273438 498.7265625 -141.39046875 497.953125 -141.3984375 497.15625 C-140.8975737 494.44569296 -140.14438554 493.69675429 -138 492 C-135.94418049 491.63085651 -135.94418049 491.63085651 -133.53913879 491.63923645 C-132.62818105 491.63510396 -131.7172233 491.63097147 -130.77866077 491.62671375 C-129.77767196 491.63750808 -128.77668314 491.6483024 -127.74536133 491.65942383 C-126.67448367 491.65906222 -125.60360601 491.65870062 -124.50027752 491.65832806 C-121.02733984 491.66057062 -117.55488273 491.68343239 -114.08203125 491.70703125 C-111.94055412 491.71144102 -109.79907378 491.71450222 -107.65759277 491.71618652 C-99.70917927 491.73192764 -91.76083494 491.77381114 -83.8125 491.8125 C-66.054375 491.874375 -48.29625 491.93625 -30 492 C-30 456.03 -30 420.06 -30 383 C-34.29 382.67 -38.58 382.34 -43 382 C-66.12310487 377.78756366 -86.67043174 365.59943297 -103 349 C-103.88300781 348.11570312 -104.76601562 347.23140625 -105.67578125 346.3203125 C-127.11600409 323.84642418 -140.89189455 291.37349081 -141.23828125 260.2421875 C-141.25297203 259.14362679 -141.25297203 259.14362679 -141.26795959 258.02287292 C-141.46934622 238.97310175 -140.41135693 220.79361704 -137 202 C-136.78569336 200.79359863 -136.57138672 199.58719727 -136.35058594 198.34423828 C-132.85425532 178.9820988 -128.23003031 159.95650945 -123 141 C-122.71592285 139.95956543 -122.4318457 138.91913086 -122.13916016 137.84716797 C-121.38916343 135.13982952 -120.60999878 132.44367376 -119.8125 129.75 C-119.49249023 128.60688354 -119.49249023 128.60688354 -119.16601562 127.44067383 C-118.1370271 124.12793698 -117.32405926 122.2567426 -114.57421875 120.078125 C-112 119 -112 119 -109.94555664 118.67114258 C-107.86890473 118.18797461 -107.86890473 118.18797461 -106.99511719 116.32592773 C-106.76469727 115.61895752 -106.53427734 114.9119873 -106.296875 114.18359375 C-106.0390625 113.41982422 -105.78125 112.65605469 -105.515625 111.86914062 C-105.13664062 110.66547852 -105.13664062 110.66547852 -104.75 109.4375 C-104.481875 108.63119141 -104.21375 107.82488281 -103.9375 106.99414062 C-103.27701436 105.00088933 -102.63658898 103.00101136 -102 101 C-102.99 100.67 -103.98 100.34 -105 100 C-106.90964034 96.18071932 -106.46278138 92.51521632 -105.25195312 88.55078125 C-104.15492996 85.66609461 -102.97422502 82.83308211 -101.75 80 C-101.30398437 78.95271729 -100.85796875 77.90543457 -100.3984375 76.82641602 C-91.37734532 56.02899822 -80.71561726 36.33301953 -66 19 C-65.32710938 18.16984375 -64.65421875 17.3396875 -63.9609375 16.484375 C-48.12292625 -2.29086742 -22.98742521 -12.56888203 0 0 Z M94 280 C93.78085938 280.8971875 93.56171875 281.794375 93.3359375 282.71875 C87.84591543 304.32176367 79.44703025 323.84271607 65 341 C64.28199219 341.87011719 63.56398438 342.74023438 62.82421875 343.63671875 C42.62420667 367.16031599 16.28600546 378.34061454 -14 383 C-14 418.97 -14 454.94 -14 492 C45.73 492 105.46 492 167 492 C167 422.37 167 352.74 167 281 C160.07 284.465 160.07 284.465 153 288 C140.31048155 292.9171884 123.18721551 293.36137617 110.4765625 288.21484375 C107.25884234 286.63643528 104.10250232 285.00421142 101.03515625 283.1484375 C98.76035592 281.86476898 96.43989752 280.92503941 94 280 Z M183 281 C183 350.63 183 420.26 183 492 C217.65 492 252.3 492 288 492 C288 458.34 288 424.68 288 390 C279.09 387.525 279.09 387.525 270 385 C261.55241857 381.2991548 253.79084982 377.04482258 247.37890625 370.29296875 C246.07188874 368.77199671 246.07188874 368.77199671 244 369 C243.74476563 368.42765625 243.48953125 367.8553125 243.2265625 367.265625 C241.86842315 364.75695997 240.2560357 362.89333151 238.375 360.75 C225.20571134 344.46797039 221.55041883 325.35822432 220 305 C219.88733119 303.61062728 219.77409727 302.22130021 219.66015625 300.83203125 C219.4258513 297.88877587 219.20424769 294.94546665 219 292 C218.07960938 291.91363281 217.15921875 291.82726562 216.2109375 291.73828125 C203.9015386 290.37196304 193.88676539 287.22100879 183 281 Z " fill="#010101" transform="translate(141,5)"/>
<path d="M0 0 C3.27846169 2.05996676 6.13069 4.40562388 9 7 C9.80179688 7.72058594 10.60359375 8.44117188 11.4296875 9.18359375 C63.06630394 58.16599159 86.53654732 159.30250327 89.3125 228.69140625 C90.23838135 265.12740925 79.36937387 297.68332557 54.421875 324.56640625 C43.18064597 335.86202833 30.36925446 343.9451228 15.4375 349.4375 C14.81464111 349.67243164 14.19178223 349.90736328 13.55004883 350.14941406 C8.85564513 351.75362745 4.11889129 352.45505812 -0.78881836 353.07446289 C-1.48339897 353.16447823 -2.17797958 353.25449356 -2.89360809 353.34723663 C-4.59540633 353.56740909 -6.29765951 353.78406021 -8 354 C-8.96344747 339.67609214 -9.62624601 325.35167447 -10 311 C-10.02724529 309.95740902 -10.05449059 308.91481804 -10.08256149 307.84063339 C-11.12392789 262.72738197 -11.12392789 262.72738197 1.20718384 248.74337769 C6.44805341 243.53669771 12.51012966 238.9087315 19.00828552 235.37397766 C21.21222543 234.21887337 21.21222543 234.21887337 24 232 C25.198975 228.46171042 25.198975 228.46171042 25 225 C23.66666667 222.33333333 23.66666667 222.33333333 21 221 C15.24471051 221.19544514 12.69668465 222.57466668 8.7578125 226.69140625 C7.37722656 228.10776367 7.37722656 228.10776367 5.96875 229.55273438 C5.02025047 230.55543855 4.07234057 231.55870078 3.125 232.5625 C1.23631832 234.52656494 -0.65964595 236.48346431 -2.5546875 238.44140625 C-3.38468262 239.31482666 -4.21467773 240.18824707 -5.06982422 241.08813477 C-7 243 -7 243 -8 243 C-8.0093457 241.95545654 -8.01869141 240.91091309 -8.02832031 239.8347168 C-8.06818874 235.959771 -8.13393741 232.08562186 -8.20751953 228.21118164 C-8.23574768 226.5342024 -8.2569531 224.85708965 -8.27099609 223.17993164 C-8.29240125 220.76899782 -8.33903426 218.35967216 -8.390625 215.94921875 C-8.39185364 215.19912033 -8.39308228 214.44902191 -8.39434814 213.67619324 C-8.51220452 209.41818927 -8.51220452 209.41818927 -10.87792969 206.01879883 C-14.54492734 204.25828557 -17.22325097 204.74108366 -21 206 C-22.10154467 209.30463401 -22.15818717 211.82610919 -22.20532227 215.30737305 C-22.22526749 216.60849533 -22.24521271 217.90961761 -22.26576233 219.25016785 C-22.28274546 220.6706836 -22.29962431 222.0912006 -22.31640625 223.51171875 C-22.33698137 224.96475306 -22.35797799 226.41778146 -22.37937927 227.87080383 C-22.43454234 231.6929953 -22.48397698 235.51524026 -22.53222656 239.33752441 C-22.58248372 243.23873652 -22.63814778 247.13987105 -22.69335938 251.04101562 C-22.80087041 258.69394469 -22.90233098 266.34693833 -23 274 C-30.34472973 267.78971739 -30.34472973 267.78971739 -33.67578125 264.38671875 C-34.27583984 263.77892578 -34.87589844 263.17113281 -35.49414062 262.54492188 C-36.09419922 261.93197266 -36.69425781 261.31902344 -37.3125 260.6875 C-38.53542986 259.43911894 -39.76058417 258.19291188 -40.98828125 256.94921875 C-41.78552612 256.13457153 -41.78552612 256.13457153 -42.59887695 255.3034668 C-44.75981317 253.29314471 -45.95119386 253.00415371 -48.9375 252.75 C-51.92409167 252.76617037 -51.92409167 252.76617037 -53.875 254.125 C-55.65952249 257.09920415 -55.64846 258.56316202 -55 262 C-51.56347459 267.26874887 -47.02754202 270.75937514 -41.84765625 274.2109375 C-33.10606241 280.42616051 -24.641199 287.28821492 -22.30700684 298.25628662 C-19.99911417 316.23012532 -21.51153789 335.00628199 -23 353 C-24.43576673 353.01303605 -25.87156783 353.02232046 -27.30737305 353.0300293 C-28.10692917 353.03560349 -28.90648529 353.04117767 -29.73027039 353.04692078 C-51.1891478 352.60331411 -73.20657233 336.71463009 -87.53125 321.80859375 C-112.60475231 293.28351755 -121.18011195 258.38413671 -119 221 C-117.43971613 202.40230362 -113.8564862 184.19093401 -109.6875 166.02490234 C-109.07963907 163.3504006 -108.49930377 160.6727596 -107.9375 157.98828125 C-105.3736654 145.81334714 -101.9943954 133.88796753 -98.38916016 121.98291016 C-97.00178751 117.32645533 -96.51732964 113.82670358 -97 109 C-98.94638007 107.25056835 -98.94638007 107.25056835 -101 106 C-100.0603718 102.31479152 -99.05127067 98.65488493 -98 95 C-97.80664062 94.2678125 -97.61328125 93.535625 -97.4140625 92.78125 C-96.8125 90.9375 -96.8125 90.9375 -95 88 C-92.99410195 87.57940847 -90.98727719 87.16175508 -88.97265625 86.78515625 C-85.53480001 85.41682139 -84.79855558 82.67186209 -83.390625 79.41015625 C-82.93171875 78.28480469 -82.4728125 77.15945312 -82 76 C-80.62592378 72.84441798 -79.22009154 69.70325257 -77.8125 66.5625 C-77.23749756 65.27400146 -77.23749756 65.27400146 -76.65087891 63.95947266 C-68.66152253 46.2137254 -59.44895907 30.01737589 -47 15 C-46.28263672 14.06220703 -46.28263672 14.06220703 -45.55078125 13.10546875 C-33.84169972 -1.75734821 -17.4220867 -8.6341812 0 0 Z " fill="#94D5A3" transform="translate(134,19)"/>
<path d="M0 0 C9.21210396 7.02779065 16.54431466 17.57102422 19 29 C19.18876796 31.39283334 19.33290692 33.7895123 19.4375 36.1875 C19.74436331 42.27806968 20.54772979 46.63677519 25 51 C27.52117938 52.72747476 30.18032727 53.84059509 33 55 C40.93588191 58.48250137 47.11346036 61.67019054 52 69 C52.42023438 69.62003906 52.84046875 70.24007812 53.2734375 70.87890625 C56.51617146 76.75492418 56.52110329 82.96415448 56.58544922 89.52880859 C56.67913632 94.41001194 57.22776072 97.80827715 60 102 C63.38288976 105.19909949 67.03191167 107.13754473 71.1875 109.1875 C84.27885505 116.18333122 91.70384517 126.01878512 98.5234375 138.87109375 C99.93696976 141.42420346 99.93696976 141.42420346 103.6875 141.8125 C104.780625 141.874375 105.87375 141.93625 107 142 C109.30844801 148.34823202 109.19818283 154.29481414 109 161 C108.20980469 161.29648438 107.41960937 161.59296875 106.60546875 161.8984375 C103.49492484 163.21354002 102.62688673 164.05610973 101 167 C100.53437756 168.86248975 100.0731642 170.7263075 99.64453125 172.59765625 C97.22390112 181.62000493 93.20069319 189.06272339 87 196 C86.45472656 196.62648437 85.90945313 197.25296875 85.34765625 197.8984375 C78.91927412 204.82596459 70.68854342 208.87805401 62.12890625 212.62890625 C57.61088761 215.53867605 56.52186807 220.16529402 55.1875 225.125 C51.64497967 236.98707566 46.27558261 246.61206803 35.3125 252.8125 C33.88268095 253.55661542 32.44541178 254.2866452 31 255 C30.37480469 255.35449219 29.74960937 255.70898438 29.10546875 256.07421875 C19.60483713 260.25167644 7.16009316 258.82804395 -2.25 255.26171875 C-6.5378322 253.2944321 -10.37183881 251.01817262 -14 248 C-14.57161865 247.5985376 -15.1432373 247.1970752 -15.73217773 246.78344727 C-20.77112284 242.7091695 -22.26551903 238.37445809 -23.05795288 231.99711609 C-23.24618777 229.85092044 -23.35829609 227.7154143 -23.4375 225.5625 C-23.47124725 224.82588135 -23.50499451 224.0892627 -23.5397644 223.33032227 C-23.80348488 211.33968078 -19.90967638 204.10344399 -11.77070618 195.47596741 C-5.00048311 188.6551938 2.21749346 182.29601316 9.66490173 176.2265625 C11.54293122 174.50120594 11.98279013 173.38137074 12.09765625 170.8359375 C12.08605469 170.02382812 12.07445312 169.21171875 12.0625 168.375 C12.04166667 166.91666667 12.02083333 165.45833333 12 164 C8.40444176 162.87569231 6.64031792 162.38424757 3 163 C-1.35874444 166.11229243 -4.84932553 169.99629258 -8.4375 173.9375 C-9.91953776 175.51944502 -11.40860854 177.09430268 -12.90211487 178.66542053 C-14.24629227 180.08647891 -15.57176568 181.52515981 -16.89624023 182.96459961 C-19 185 -19 185 -21 185 C-21.00142502 184.38469925 -21.00285004 183.7693985 -21.00431824 183.13545227 C-21.02401516 176.72730007 -21.0782888 170.32010042 -21.15258789 163.91235352 C-21.17577514 161.52147253 -21.19016528 159.1304893 -21.19555664 156.73950195 C-21.20484038 153.3009463 -21.24582168 149.86400056 -21.29296875 146.42578125 C-21.2890361 145.35789871 -21.28510345 144.29001617 -21.28105164 143.18977356 C-21.39708845 137.06100297 -21.39708845 137.06100297 -24.3449707 131.78198242 C-26.90836123 129.6934364 -26.90836123 129.6934364 -30.1875 130.0625 C-33.09782797 130.79968558 -33.09782797 130.79968558 -35 133 C-35.2459409 135.9366021 -35.37375252 138.78562112 -35.4140625 141.7265625 C-35.43342865 142.58937836 -35.4527948 143.45219421 -35.4727478 144.34115601 C-35.53262204 147.10233616 -35.57895998 149.86355784 -35.625 152.625 C-35.66317259 154.49481005 -35.70222389 156.36460238 -35.7421875 158.234375 C-35.83832992 162.82277309 -35.92233166 167.41125351 -36 172 C-39.83212755 168.76633797 -43.59767866 165.53050796 -47.11328125 161.94921875 C-47.80357422 161.25119141 -48.49386719 160.55316406 -49.20507812 159.83398438 C-49.90052734 159.12564453 -50.59597656 158.41730469 -51.3125 157.6875 C-52.72294025 156.2516235 -54.1355915 154.81791441 -55.55078125 153.38671875 C-56.16606689 152.75983154 -56.78135254 152.13294434 -57.4152832 151.48706055 C-59.67948735 149.36238524 -60.79688376 149.01728649 -63.9375 148.75 C-66.91244441 148.77674522 -66.91244441 148.77674522 -68.875 150.0625 C-70.72778702 153.25341097 -70.51349787 155.36990738 -70 159 C-67.87251518 161.59502942 -65.2357641 163.46219148 -62.5625 165.46875 C-36.09103149 187.07610908 -36.09103149 187.07610908 -33.81884766 202.24472046 C-33.33966933 207.58386738 -33.29566484 212.83342248 -33.5 218.1875 C-33.53464355 219.22213379 -33.56928711 220.25676758 -33.60498047 221.32275391 C-33.74184319 224.30200435 -33.95243097 227.26014485 -34.21875 230.23046875 C-34.29581177 231.11457932 -34.37287354 231.99868988 -34.45227051 232.90959167 C-35.42314804 240.39343931 -38.80905342 244.42493521 -44.5703125 249.07421875 C-56.29254604 256.47679131 -67.21571278 259.39985508 -81 258 C-91.04545871 255.61269473 -99.98926564 249.32916047 -106 241 C-107.38031683 238.23936635 -107.16228999 235.61405386 -107.23925781 232.57885742 C-107.87862921 208.42979963 -111.80324278 184.54967281 -117 161 C-117.22945312 159.93974609 -117.45890625 158.87949219 -117.6953125 157.78710938 C-121.13011101 141.98137445 -125.27177734 126.46689785 -130 111 C-127.7713528 108.66892249 -126.06556191 107.49412705 -123.0625 106.3125 C-119.2466701 104.40458505 -117.36262971 102.65522296 -115.66015625 98.734375 C-114.59228055 94.3112212 -114.57868324 89.82051459 -114.42089844 85.29248047 C-114.16680576 79.45219887 -113.18039643 74.99485337 -110 70 C-109.5771875 69.30648437 -109.154375 68.61296875 -108.71875 67.8984375 C-103.82803616 60.64387864 -97.47252599 56.70026425 -89.25 54 C-84.11928941 52.28976314 -81.94046713 50.50871626 -79 46 C-77.87905439 43.75810879 -77.73238276 42.15738095 -77.4921875 39.66796875 C-75.81784358 24.32476144 -72.54242926 13.16000239 -60.87890625 2.2265625 C-42.48369274 -12.00040046 -19.42315918 -12.81101988 0 0 Z " fill="#B2E49E" transform="translate(345,24)"/>
<path d="M0 0 C5.61145484 0.02430908 10.65159751 0.23625865 15.9375 2.1875 C17.2678125 2.63029297 17.2678125 2.63029297 18.625 3.08203125 C36.03857168 9.49875102 47.5125264 22.49190068 55.171875 39.0546875 C63.24885496 57.46368534 63.55939601 79.04315826 56.25 97.8125 C48.97511848 115.32025522 37.25765367 128.04205689 19.75 135.5 C15.86049708 137.07037852 12.09555904 137.67472349 7.9375 138.1875 C6.31450995 130.83030698 5.51802475 123.43171284 7.9375 116.1875 C13.49511473 108.06755292 21.13354823 101.61803461 28.59912109 95.2902832 C31.49297169 92.68799304 32.84176402 91.10656541 33.25 87.1875 C33.14812618 84.26761156 33.14812618 84.26761156 31.875 82.3125 C28.61558125 80.41993427 26.65028378 80.57884692 22.9375 81.1875 C20.79456851 82.65260837 18.98717716 84.26432172 17.125 86.0703125 C14.18228669 88.91843859 11.06327619 91.54354114 7.9375 94.1875 C7.9281543 93.45112305 7.91880859 92.71474609 7.90917969 91.95605469 C7.85545845 88.61585782 7.77181378 85.27705881 7.6875 81.9375 C7.67332031 80.77863281 7.65914063 79.61976563 7.64453125 78.42578125 C7.61230469 77.31074219 7.58007812 76.19570313 7.546875 75.046875 C7.5154541 73.50725098 7.5154541 73.50725098 7.48339844 71.93652344 C6.80058396 68.49802117 5.72661396 67.2647116 2.9375 65.1875 C-0.68899951 65.09833846 -0.68899951 65.09833846 -4.0625 66.1875 C-6.47817243 69.81100865 -6.33417715 71.54595945 -6.38134766 75.86206055 C-6.39641609 76.87221222 -6.39641609 76.87221222 -6.41178894 77.902771 C-6.44265604 80.12657831 -6.45966551 82.35026504 -6.4765625 84.57421875 C-6.49527135 86.11693868 -6.51484456 87.65964835 -6.5352478 89.2023468 C-6.58660506 93.26126052 -6.62621143 97.32020742 -6.66339111 101.37927246 C-6.70340831 105.52181228 -6.75451105 109.66421361 -6.8046875 113.80664062 C-6.90148931 121.93349919 -6.98588035 130.06042622 -7.0625 138.1875 C-22.946337 136.30537549 -34.70085392 128.31283052 -45.0625 116.1875 C-58.73193958 97.34713406 -61.21767459 77.85172208 -59.890625 55.26171875 C-59.0625 53.1875 -59.0625 53.1875 -56.69140625 51.703125 C-55.67949219 51.28546875 -54.66757812 50.8678125 -53.625 50.4375 C-39.51777555 43.86082241 -30.05090636 31.32370089 -24.0625 17.1875 C-23.68158203 15.88232422 -23.68158203 15.88232422 -23.29296875 14.55078125 C-21.96739178 10.18225419 -21.07280054 7.86240267 -17.1796875 5.26171875 C-14.1793839 3.77575278 -11.15898966 2.45701391 -8.0625 1.1875 C-6.11594515 -0.75905485 -2.57242936 0.01267207 0 0 Z " fill="#B2E39E" transform="translate(436.0625,240.8125)"/>
<path d="M0 0 C10.79239207 -0.84278984 19.46493479 1.99306344 27.7578125 8.97265625 C28.49773437 9.64167969 29.23765625 10.31070312 30 11 C30.80179688 11.72058594 31.60359375 12.44117188 32.4296875 13.18359375 C84.06630394 62.16599159 107.53654732 163.30250327 110.3125 232.69140625 C111.23838135 269.12740925 100.36937387 301.68332557 75.421875 328.56640625 C60.48148203 343.57909144 39.70503825 356.31095117 18 357 C20.89782425 354.68465299 23.96099954 352.83133569 27.17822266 350.99316406 C34.59608693 346.7325899 40.90016549 342.05208629 47 336 C48.2684375 334.7934375 48.2684375 334.7934375 49.5625 333.5625 C50.366875 332.716875 51.17125 331.87125 52 331 C52.65355469 330.3296875 53.30710938 329.659375 53.98046875 328.96875 C76.69985567 304.88072531 86.70531959 272.3348348 86.375 239.75 C86.37067963 238.936521 86.36635925 238.12304199 86.36190796 237.28491211 C86.29096694 225.86830558 85.75302953 214.83563491 83.50048828 203.6171875 C82.91109858 200.53511065 82.42077744 197.44361408 81.93359375 194.34375 C79.21532013 177.29652094 75.43575394 160.67584922 71 144 C70.68828857 142.79980225 70.37657715 141.59960449 70.05541992 140.36303711 C58.39270552 95.78458748 40.60677263 32.22042067 1.5625 3.1875 C1.046875 2.795625 0.53125 2.40375 0 2 C0 1.34 0 0.68 0 0 Z " fill="#76C0A2" transform="translate(113,15)"/>
<path d="M0 0 C15.44575702 -0.67263781 28.58411487 2.36594728 40.55419922 12.61669922 C49.62188194 21.29239836 54.89699508 32.79543608 55.4375 45.1875 C55.74436331 51.27806968 56.54772979 55.63677519 61 60 C63.52117938 61.72747476 66.18032727 62.84059509 69 64 C76.93588191 67.48250137 83.11346036 70.67019054 88 78 C88.42023438 78.62003906 88.84046875 79.24007812 89.2734375 79.87890625 C92.51617146 85.75492418 92.52110329 91.96415448 92.58544922 98.52880859 C92.67913632 103.41001194 93.22776072 106.80827715 96 111 C99.38288976 114.19909949 103.03191167 116.13754473 107.1875 118.1875 C120.27885505 125.18333122 127.70384517 135.01878512 134.5234375 147.87109375 C135.93696976 150.42420346 135.93696976 150.42420346 139.6875 150.8125 C140.780625 150.874375 141.87375 150.93625 143 151 C145.30844801 157.34823202 145.19818283 163.29481414 145 170 C144.20980469 170.29648438 143.41960937 170.59296875 142.60546875 170.8984375 C139.49492484 172.21354002 138.62688673 173.05610973 137 176 C136.53437756 177.86248975 136.0731642 179.7263075 135.64453125 181.59765625 C133.22390112 190.62000493 129.20069319 198.06272339 123 205 C122.45472656 205.62648437 121.90945313 206.25296875 121.34765625 206.8984375 C114.91927412 213.82596459 106.68854342 217.87805401 98.12890625 221.62890625 C93.61088761 224.53867605 92.52186807 229.16529402 91.1875 234.125 C87.64497967 245.98707566 82.27558261 255.61206803 71.3125 261.8125 C69.88268095 262.55661542 68.44541178 263.2866452 67 264 C66.37480469 264.35449219 65.74960937 264.70898438 65.10546875 265.07421875 C60.14823944 267.25392811 54.95432028 267.11277661 49.625 267.0625 C48.37976563 267.05347656 47.13453125 267.04445313 45.8515625 267.03515625 C44.44003906 267.01775391 44.44003906 267.01775391 43 267 C43 266.67 43 266.34 43 266 C44.03125 265.773125 45.0625 265.54625 46.125 265.3125 C54.80402886 262.73319022 58.84889703 255.55539535 63 248 C65.46812107 242.78447048 67.69144953 237.55171529 69.0625 231.9375 C70.18117498 228.43231838 70.95908805 227.94800516 74 226 C76.15613995 224.97750064 78.32424543 223.98006963 80.5 223 C95.59386165 215.74733706 104.97109993 203.35951333 111 187.890625 C116.34894058 172.42884363 114.9580465 156.44460993 108.4921875 141.51953125 C104.69136938 133.9797688 99.99326114 127.91753402 94 122 C93.20722656 121.17435547 93.20722656 121.17435547 92.3984375 120.33203125 C87.97312501 116.099617 82.59332379 113.50437261 77.15380859 110.80224609 C73.8271002 109.12411216 72.10959594 108.16439391 70 105 C69.77499399 102.86101885 69.64157231 100.71182911 69.5625 98.5625 C68.70282033 84.66434533 65.16969664 74.29714369 54.984375 64.5625 C50.24481513 60.83056309 44.63067924 58.63887319 39.0625 56.4375 C35.79532947 54.90393016 34.82679094 54.02679438 33 51 C32.6640625 48.765625 32.6640625 48.765625 32.625 46.25 C31.55582574 30.87033956 25.07284582 17.13291095 13.83984375 6.58984375 C9.34254838 2.70364584 5.93095827 1.5814665 0 1 C0 0.67 0 0.34 0 0 Z " fill="#94D4A2" transform="translate(309,15)"/>
<path d="M0 0 C14.89862834 -0.17857945 27.34009093 5.41411492 38.31640625 15.2734375 C52.21494535 29.39451507 60.34349484 47.76493189 60.375 67.625 C60.01477425 88.23564397 54.36931483 106.77650741 39.6875 121.8125 C30.70948686 130.42256179 19.577619 136.906294 7 138 C6.7109375 135.76953125 6.7109375 135.76953125 7 133 C8.9765625 130.82421875 8.9765625 130.82421875 11.625 128.6875 C25.05183068 117.20850532 34.78892753 98.31379141 36.28881836 80.58642578 C36.40139728 76.90717611 36.40952468 73.24321491 36.375 69.5625 C36.38660156 68.32951172 36.39820313 67.09652344 36.41015625 65.82617188 C36.37547205 54.8833071 34.32380214 44.99378076 29.875 35 C29.42821899 33.99163086 29.42821899 33.99163086 28.97241211 32.96289062 C23.07068958 20.22496836 13.59674358 9.51183259 1.6875 2.12890625 C1.130625 1.75636719 0.57375 1.38382813 0 1 C0 0.67 0 0.34 0 0 Z " fill="#93D4A2" transform="translate(437,241)"/>
</svg>
